<?xml version="1.0" encoding="UTF-8"?>
<svg id="Layer_2" data-name="Layer 2" xmlns="http://www.w3.org/2000/svg" viewBox="0 0 4350.6 1359.5" width="117px" height="37px">
  <defs>
    <style>
      .cls-1 {
        fill: #051b3b;
      }

      .cls-2 {
        fill: #e63946;
      }

      .cls-3 {
        fill: none;
        stroke: #71a0e6;
        stroke-miterlimit: 10;
        stroke-width: 20px;
      }
    </style>
  </defs>
  <path class="cls-1" d="M949.97,648c-38.02,61.34-93.31,111.47-165.89,150.34s-158.97,61.77-259.19,68.67l-55.73,312.34c-21.59,120.09-80.34,180.14-176.25,180.14-52.72,0-101.31-15.56-145.81-46.66-44.5-31.11-80.14-78.62-106.92-142.56S0,1027.72,0,934.41c0-175.38,28.3-324.2,84.89-446.47,56.59-122.25,132.62-213.84,228.09-274.75s200.67-91.38,315.58-91.38c81.22,0,150.12,14.27,206.72,42.78s99.36,67.17,128.3,115.98,43.42,103.89,43.42,165.23c0,73.45-19.02,140.84-57.03,202.19Zm-136.08-190.52c0-57.02-18.8-103.45-56.38-139.31-37.59-35.86-95.69-53.8-174.31-53.8-89,0-166.53,28.09-232.62,84.25s-117.08,134.14-152.94,233.92c-35.86,99.8-53.78,213.62-53.78,341.5,0,53.56,5.39,101.09,16.2,142.56,10.8,41.47,24.62,73.66,41.47,96.55,16.84,22.91,33.05,34.34,48.61,34.34,21.59,0,38-29.8,49.23-89.42l42.78-244.95c-33.7-5.17-48.39-7.33-44.06-6.47-25.94-4.31-42.78-12.31-50.56-23.98-7.78-11.66-11.66-26.56-11.66-44.7s5.39-34.12,16.2-45.36c10.8-11.23,25.7-16.86,44.72-16.86,8.62,0,15.11,.44,19.44,1.3,20.72,3.47,36.7,5.62,47.95,6.48,11.22-67.39,27.2-157.67,47.95-270.86,5.17-29.38,17.05-50.33,35.62-62.86s40.39-18.8,65.45-18.8c28.5,0,49.03,5.41,61.56,16.2,12.53,10.81,18.8,27.88,18.8,51.19,0,13.83-.88,25.06-2.59,33.7l-42.77,251.42c177.11-22.47,265.67-114.48,265.67-276.05Z"/>
  <path class="cls-1" d="M1005.04,1165.11c-25.5-39.75-38.23-92.45-38.23-158.12,0-38.88,4.97-88.77,14.91-149.67s22.67-117.72,38.23-170.44c7.78-27.64,18.14-46.64,31.11-57.02,12.95-10.38,33.69-15.56,62.2-15.56,44.06,0,66.09,14.69,66.09,44.06,0,21.61-8.22,71.72-24.62,150.34-20.73,95.05-31.09,159.41-31.09,193.09,0,25.94,3.45,45.81,10.36,59.62,6.91,13.83,18.58,20.73,35,20.73,15.55,0,34.98-10.8,58.31-32.39s54.44-55.73,93.31-102.39c10.36-12.09,22.03-18.16,35-18.16,11.22,0,20.08,5.19,26.56,15.56,6.47,10.38,9.72,24.62,9.72,42.77,0,34.56-8.22,61.34-24.62,80.34-85.53,104.56-165.45,156.83-239.77,156.83-56.16,0-96.98-19.86-122.47-59.61Z"/>
  <path class="cls-2" d="M1155.53,520.38c-28.35,.61-55.85-35.05-62.42-67.69-3.1-15.41-5.03-47.46,11.21-56.47,23.98-13.3,75.03,30.53,69.95,44.04-3.6,9.58-37.45,9.36-39.94,1.79-3.94-11.95,65.48-57.13,82.52-42.89,19.23,16.06-13.42,120.19-61.32,121.21Z"/>
  <path class="cls-1" d="M2067.75,944.78c6.47,10.38,9.72,24.62,9.72,42.77,0,34.56-8.22,61.34-24.62,80.34-38.02,44.94-79.7,82.31-125.06,112.12s-96.55,44.7-153.58,44.7c-44.06,0-83.16-8.2-117.28-24.62-34.12-16.41-61.12-39.73-81-69.98-49.25,62.22-107.58,93.31-174.97,93.31-47.53,0-85.11-13.81-112.75-41.47-27.66-27.66-41.47-64.38-41.47-110.17,0-43.19,9.92-78.19,29.8-104.97s47.95-40.17,84.25-40.17c31.09,0,46.66,11.67,46.66,34.98,0,6.06-.88,16.86-2.59,32.41-2.59,31.11-3.89,48.81-3.89,53.12,0,25.94,11.23,38.89,33.7,38.89,16.41,0,32.17-9.72,47.3-29.16s27.66-46.02,37.59-79.7,14.91-70.84,14.91-111.47c0-31.09-3.89-57.23-11.67-78.41-7.78-21.16-17.28-31.75-28.52-31.75-9.5,0-16.42,2.38-20.73,7.12s-8.64,12.75-12.95,23.98c-5.19,13.83-12.11,24.84-20.75,33.05-8.64,8.22-23.75,12.31-45.34,12.31-19.02,0-34.14-6.69-45.38-20.09-11.23-13.39-16.84-33.91-16.84-61.56,0-44.06,13.39-78.61,40.17-103.67s61.34-37.59,103.69-37.59c36.28,0,69.12,8.86,98.5,26.58s51.83,43.42,67.39,77.11c25.91-34.56,55.06-60.48,87.47-77.77s64.16-25.92,95.27-25.92c33.69,0,59.39,7.78,77.11,23.33,17.72,15.56,26.58,40.61,26.58,75.17,0,38.89-7.36,69.34-22.05,91.38s-32.41,33.05-53.12,33.05c-19.02,0-31.98-3.88-38.89-11.66s-12.09-19.02-15.55-33.7c-1.73-10.38-4.33-18.14-7.78-23.33s-9.5-7.78-18.14-7.78c-10.38,0-21.39,9.72-33.05,29.16-11.67,19.44-21.61,45.14-29.81,77.11s-12.3,65.23-12.3,99.8c0,40.61,9.72,71.94,29.16,93.97s46,33.05,79.7,33.05,65.44-11.44,95.25-34.34c29.81-22.89,64.58-58.53,104.33-106.92,10.38-12.09,22.03-18.16,35-18.16,11.22,0,20.08,5.19,26.56,15.56Z"/>
  <path class="cls-1" d="M2009.42,1165.11c-25.5-39.75-38.23-92.45-38.23-158.12,0-38.88,4.97-88.77,14.91-149.67s22.67-117.72,38.23-170.44c7.78-27.64,18.14-46.64,31.11-57.02,12.95-10.38,33.69-15.56,62.2-15.56,44.06,0,66.09,14.69,66.09,44.06,0,21.61-8.22,71.72-24.62,150.34-20.73,95.05-31.09,159.41-31.09,193.09,0,25.94,3.45,45.81,10.36,59.62,6.91,13.83,18.58,20.73,35,20.73,15.55,0,34.98-10.8,58.31-32.39s54.44-55.73,93.31-102.39c10.36-12.09,22.03-18.16,35-18.16,11.22,0,20.08,5.19,26.56,15.56,6.47,10.38,9.72,24.62,9.72,42.77,0,34.56-8.22,61.34-24.62,80.34-85.53,104.56-165.45,156.83-239.77,156.83-56.16,0-96.98-19.86-122.47-59.61Zm51.19-661.61c-18.14-16.84-27.2-40.39-27.2-70.64s11.88-55.5,35.64-75.81c23.75-20.3,53.34-30.45,88.77-30.45,31.97,0,57.89,7.78,77.77,23.33,19.88,15.56,29.81,37.59,29.81,66.09,0,34.56-11.23,61.98-33.7,82.3s-52.27,30.45-89.42,30.45-63.52-8.42-81.66-25.27Z"/>
  <path class="cls-1" d="M3037.14,944.78c6.47,10.38,9.72,24.62,9.72,42.77,0,34.56-8.22,61.34-24.62,80.34-39.75,45.81-80.58,83.39-122.48,112.77s-89.64,44.06-143.2,44.06c-44.06,0-77.33-12.73-99.8-38.23-22.47-25.48-33.69-62.42-33.69-110.81,0-24.19,6.05-67.38,18.14-129.59,11.22-54.44,16.84-92.02,16.84-112.75,0-13.81-4.75-20.73-14.25-20.73-11.23,0-27.22,14.48-47.95,43.42-20.75,28.94-41.48,67.17-62.22,114.69-20.73,47.53-37.58,97.64-50.53,150.33-16.42,69.12-57.03,103.69-121.83,103.69-25.92,0-42.98-9.28-51.19-27.86-8.22-18.58-12.31-52.06-12.31-100.45,0-27.64,.42-49.67,1.3-66.09l1.3-103.67c0-133.06,13.59-271.73,40.81-416.02s67.39-265.47,120.53-363.53S2578.56,0,2652.87,0c39.73,0,71.92,17.06,96.55,51.19s36.94,78.41,36.94,132.84c0,87.27-25.5,177.77-76.47,271.52s-133.92,203.25-248.83,328.53c-2.59,44.94-3.89,91.16-3.89,138.67,28.5-73.44,60.25-133.27,95.25-179.48s69.56-79.28,103.69-99.16,65.44-29.81,93.95-29.81c56.16,0,84.25,28.08,84.25,84.23,0,33.7-9.52,94.62-28.52,182.75-16.42,75.17-24.62,124.84-24.62,149.03,0,34.56,12.53,51.84,37.59,51.84,17.27,0,37.78-10.58,61.55-31.75,23.75-21.16,55.52-55.5,95.27-103.03,10.36-12.09,22.02-18.16,34.98-18.16,11.23,0,20.09,5.19,26.58,15.56Zm-463.33-749.73c-19.02,44.5-37.38,104.55-55.08,180.14-17.72,75.61-32.19,157.91-43.42,246.89,53.56-63.06,97.84-131.75,132.84-206.06,34.98-74.31,52.48-141.7,52.48-202.19,0-27.64-3.03-48.81-9.08-63.5s-14.69-22.03-25.91-22.03c-15.56,0-32.84,22.25-51.84,66.75Z"/>
  <path class="cls-1" d="M2978.81,1165.11c-25.5-39.75-38.23-92.45-38.23-158.12,0-38.88,4.97-88.77,14.91-149.67s22.67-117.72,38.23-170.44c7.78-27.64,18.14-46.64,31.11-57.02,12.95-10.38,33.69-15.56,62.2-15.56,44.06,0,66.09,14.69,66.09,44.06,0,21.61-8.22,71.72-24.62,150.34-20.73,95.05-31.09,159.41-31.09,193.09,0,25.94,3.45,45.81,10.36,59.62,6.91,13.83,18.58,20.73,35,20.73,15.55,0,34.98-10.8,58.31-32.39s54.44-55.73,93.31-102.39c10.36-12.09,22.03-18.16,35-18.16,11.22,0,20.08,5.19,26.56,15.56,6.47,10.38,9.72,24.62,9.72,42.77,0,34.56-8.22,61.34-24.62,80.34-85.53,104.56-165.45,156.83-239.77,156.83-56.16,0-96.98-19.86-122.47-59.61Z"/>
  <path class="cls-3" d="M3111.52,531.91c-40.41,7.45-105.66-79.51-82.98-127.01,8.57-17.96,31.36-33.75,49.11-28.79,12.87,3.59,22.35,17.89,28.78,35.79,16.89-17.3,38.15-27.54,47.43-22.24,22.66,12.92,1.66,134.14-42.34,142.25Z"/>
  <path class="cls-1" d="M3283.34,1172.88c-13.39-34.56-20.08-89.86-20.08-165.89,0-112.31,15.98-219.02,47.95-320.11,7.78-25.05,20.52-43.41,38.23-55.08,17.7-11.66,42.55-17.5,74.52-17.5,17.28,0,29.38,2.17,36.28,6.48,6.91,4.33,10.38,12.53,10.38,24.62,0,13.83-6.48,44.94-19.44,93.31-8.64,34.56-15.55,64.8-20.73,90.72s-9.52,57.89-12.95,95.91c28.5-74.31,60.47-134.78,95.89-181.44s70.2-79.92,104.33-99.8,65.45-29.81,93.97-29.81c56.16,0,84.23,28.08,84.23,84.23,0,11.25-3.89,38.47-11.66,81.66-6.92,34.56-10.38,56.17-10.38,64.8,0,30.25,10.8,45.36,32.41,45.36,24.19,0,55.28-19,93.31-57.02,11.22-11.23,22.89-16.86,34.98-16.86,11.22,0,20.08,4.97,26.56,14.91s9.73,23.12,9.73,39.53c0,31.97-8.64,57.03-25.92,75.17-24.2,25.06-52.5,46.44-84.89,64.16-32.41,17.72-66.75,26.56-103.03,26.56-45.8,0-80.58-11.66-104.33-34.98-23.77-23.33-35.64-54.88-35.64-94.62,0-12.95,1.3-25.91,3.89-38.88,1.72-17.28,2.59-28.94,2.59-34.98,0-13.81-4.77-20.73-14.27-20.73-12.97,0-30.03,14.48-51.19,43.42-21.17,28.94-42.12,67.17-62.86,114.69-20.73,47.53-37.58,97.64-50.55,150.33-9.5,40.62-20.52,68.06-33.05,82.31s-32.19,21.38-58.97,21.38c-32.84,0-55.95-17.28-69.34-51.84Z"/>
  <path class="cls-1" d="M4340.88,983.66c6.47,10.38,9.72,24.62,9.72,42.77,0,31.11-7.34,57.89-22.03,80.36-24.2,37.16-55.95,66.09-95.27,86.83-39.31,20.75-86.19,31.11-140.61,31.11-82.95,0-147.33-24.83-193.11-74.52-45.8-49.69-68.69-116.86-68.69-201.53,0-59.61,12.52-115.12,37.58-166.53s59.83-92.23,104.33-122.48c44.5-30.23,94.83-45.36,150.98-45.36,50.11,0,90.28,14.91,120.53,44.72,30.23,29.81,45.36,70.2,45.36,121.17,0,59.62-21.39,110.81-64.16,153.58-42.77,42.78-115.55,76.69-218.36,101.73,20.72,39.75,55.72,59.61,104.97,59.61,35.42,0,64.58-8.2,87.48-24.62,22.89-16.41,49.45-44.06,79.7-82.94,10.36-12.95,22.02-19.44,34.98-19.44,11.23,0,20.09,5.19,26.58,15.55Zm-320.12-186.61c-22.03,37.16-33.05,82.08-33.05,134.77v2.59c50.97-12.09,91.16-30.23,120.53-54.42s44.06-52.28,44.06-84.25c0-16.41-4.55-29.58-13.61-39.52-9.08-9.94-21.39-14.91-36.94-14.91-31.97,0-58.97,18.58-81,55.73Z"/>
</svg>